<svg width="50" height="51" viewBox="0 0 50 51" fill="none" xmlns="http://www.w3.org/2000/svg">
<g clip-path="url(#clip0_416_301)">
<path d="M25 50.8181C38.8071 50.8181 50 39.6252 50 25.8181C50 12.011 38.8071 0.818115 25 0.818115C11.1929 0.818115 0 12.011 0 25.8181C0 39.6252 11.1929 50.8181 25 50.8181Z" fill="#D80027"/>
<path d="M25 37.7747C31.6034 37.7747 36.9565 32.4215 36.9565 25.8181C36.9565 19.2147 31.6034 13.8616 25 13.8616C18.3966 13.8616 13.0435 19.2147 13.0435 25.8181C13.0435 32.4215 18.3966 37.7747 25 37.7747Z" fill="#F0F0F0"/>
<path d="M26.4729 21.2465L28.5241 24.0731L31.8461 22.996L29.7917 25.8202L31.8427 28.6468L28.5218 27.5655L26.4674 30.3897L26.4695 26.8974L23.1487 25.8162L26.4708 24.739L26.4729 21.2465Z" fill="#D80027"/>
<path d="M27.7174 32.8834C23.8154 32.8834 20.6521 29.7201 20.6521 25.8181C20.6521 21.9162 23.8154 18.7529 27.7174 18.7529C28.934 18.7529 30.0788 19.0605 31.0782 19.6021C29.5103 18.0688 27.3663 17.1224 25 17.1224C20.1976 17.1224 16.3044 21.0156 16.3044 25.818C16.3044 30.6205 20.1976 34.5136 25 34.5136C27.3663 34.5136 29.5104 33.5673 31.0782 32.034C30.0788 32.5758 28.934 32.8834 27.7174 32.8834Z" fill="#D80027"/>
</g>
<defs>
<clipPath id="clip0_416_301">
<rect width="50" height="50" fill="white" transform="translate(0 0.818115)"/>
</clipPath>
</defs>
</svg>