<svg width="50" height="51" viewBox="0 0 50 51" fill="none" xmlns="http://www.w3.org/2000/svg">
<g clip-path="url(#clip0_416_301)">
<path d="M0 25.8181C0 28.8761 0.550098 31.8054 1.55498 34.5137L25 35.6008L48.445 34.5138C49.45 31.8054 50 28.8761 50 25.8181C50 22.7601 49.45 19.8308 48.445 17.1225L25 16.0355L1.55498 17.1224C0.550098 19.8308 0 22.7601 0 25.8181H0Z" fill="#FFDA44"/>
<path d="M25 0.818115C14.2509 0.818115 5.08732 7.60249 1.55499 17.1225H48.4451C44.9127 7.60249 35.7491 0.818115 25 0.818115V0.818115Z" fill="#D80027"/>
<path d="M48.445 34.5137H1.55499C5.08732 44.0336 14.2509 50.8181 25 50.8181C35.7491 50.8181 44.9127 44.0336 48.445 34.5137Z" fill="#496E2D"/>
<path d="M24.9998 17.1226L27.158 23.7651H34.1432L28.4925 27.8709L30.6507 34.5138L24.9998 30.4083L19.3489 34.5138L21.5075 27.8709L15.8568 23.7651H22.8416L24.9998 17.1226Z" fill="black"/>
</g>
<defs>
<clipPath id="clip0_416_301">
<rect width="50" height="50" fill="white" transform="translate(0 0.818115)"/>
</clipPath>
</defs>
</svg>